<svg xmlns="http://www.w3.org/2000/svg" viewBox="0 0 64 64" role="img" aria-hidden="true">
  <defs>
    <linearGradient id="waGradient" x1="12" y1="12" x2="52" y2="52" gradientUnits="userSpaceOnUse">
      <stop offset="0" stop-color="#6dff8b" />
      <stop offset="1" stop-color="#13a04b" />
    </linearGradient>
  </defs>
  <rect x="4" y="4" width="56" height="56" rx="14" fill="url(#waGradient)" />
  <path
    fill="#ffffff"
    d="M32.02 17.2c-7.23 0-13.1 5.87-13.1 13.11 0 2.3.6 4.55 1.74 6.53l-1.85 6.77 6.94-1.82c1.9 1.03 4.04 1.57 6.27 1.57h.01c7.24 0 13.12-5.87 13.13-13.11 0-3.51-1.37-6.81-3.86-9.3-2.49-2.49-5.79-3.85-9.28-3.85Zm7.58 18.95c-.32.89-1.57 1.64-2.43 1.86-.62.16-1.42.3-4.12-.89-3.45-1.48-5.66-4.87-5.83-5.09-.17-.22-1.39-1.85-1.39-3.54 0-1.69.88-2.51 1.19-2.85.31-.34.69-.43.92-.43.22 0 .46 0 .66.01.21.01.49-.08.77.59.32.78 1.1 2.67 1.2 2.86.1.19.17.42.03.68-.14.26-.21.41-.41.64-.2.22-.42.5-.17.94.26.45 1.14 1.87 2.44 3.02 1.68 1.5 3.08 1.97 3.54 2.2.46.23.73.19.99-.11.26-.3 1.12-1.3 1.42-1.74.3-.43.59-.37.99-.22.4.15 2.57 1.21 3.01 1.43.44.22.73.33.84.51.1.19.1 1.09-.22 1.98Z"
  />
</svg>
