<svg width="48" height="48" viewBox="0 0 64 64" xmlns="http://www.w3.org/2000/svg" role="img" aria-labelledby="title">
  <title>WhatsApp</title>
  <path
    d="M32 6C17.64 6 6 17.64 6 32c0 4.74 1.28 9.45 3.7 13.55L8 56l10.63-2.78C22.76 55.53 27.29 57 32 57c14.36 0 26-11.64 26-26S46.36 6 32 6z"
    fill="#ffffff"
    stroke="#15B63B"
    stroke-width="4"
    stroke-linejoin="round"
  />
  <path
    d="M41.9 38.9l-3.8-3.8a2.1 2.1 0 00-2.27-.45l-2.13.86a1.7 1.7 0 01-1.8-.33l-4.2-4.2a1.7 1.7 0 01-.33-1.8l.86-2.13a2.1 2.1 0 00-.45-2.27l-3.8-3.8a2.1 2.1 0 00-2.97 0l-1.74 1.74c-1.25 1.25-1.72 3.13-1.18 4.82 1.84 5.76 6.16 10.09 11.92 11.92.52.16 1.03.24 1.54.24 1.27 0 2.49-.5 3.37-1.38l1.74-1.74a2.1 2.1 0 000-2.97z"
    fill="#15B63B"
  />
</svg>
