<svg xmlns="http://www.w3.org/2000/svg" viewBox="0 0 24 24" width="24" height="24">
  <path
    fill="#111"
    d="M19.665 16.468c-.29.672-.625 1.252-1.007 1.74-.53.688-.965 1.161-1.303 1.42-.522.384-1.082.581-1.68.594-.43 0-.95-.123-1.56-.37-.612-.247-1.174-.37-1.686-.37-.535 0-1.109.123-1.72.37-.612.247-1.11.377-1.495.392-.576.024-1.138-.193-1.687-.654-.36-.283-.812-.784-1.357-1.504-.58-.773-1.052-1.668-1.417-2.686-.396-1.125-.594-2.215-.594-3.27 0-1.206.26-2.252.78-3.139.41-.715.958-1.279 1.642-1.692.684-.412 1.422-.63 2.215-.653.435 0 1.005.141 1.712.42.707.28 1.159.42 1.355.42.148 0 .65-.156 1.507-.467.809-.29 1.49-.411 2.045-.364 1.51.122 2.647.72 3.41 1.796-1.356.82-2.031 1.966-2.022 3.437.011 1.145.423 2.1 1.235 2.864.366.349.776.619 1.23.811-.098.284-.201.555-.31.813zM15.826 3.61c0 .9-.331 1.74-.992 2.521-.796.924-1.756 1.458-2.797 1.372-.013-.105-.02-.226-.02-.364 0-.868.376-1.79 1.046-2.548.334-.381.758-.698 1.278-.953.521-.256 1.012-.398 1.485-.428.001.134.001.248.001.318z"
  />
</svg>
